<?xml version="1.0" encoding="utf-8"?>
<!-- Generator: Adobe Illustrator 24.1.2, SVG Export Plug-In . SVG Version: 6.00 Build 0)  -->
<svg version="1.1" id="Layer_1" xmlns="http://www.w3.org/2000/svg" xmlns:xlink="http://www.w3.org/1999/xlink" x="0px" y="0px"
	 viewBox="0 0 610 603" style="enable-background:new 0 0 610 603;" xml:space="preserve">
<style type="text/css">
	.st0{fill:#63A93C;}
	.st1{fill:#FEFEFE;}
</style>
<g>
	<path class="st0" d="M535,579.2H75c-26.3,0-47.7-21.5-47.7-47.7v-460c0-26.3,21.5-47.7,47.7-47.7h460c26.3,0,47.7,21.5,47.7,47.7
		v460C582.7,557.7,561.2,579.2,535,579.2z"/>
</g>
<g>
	<g>
		<path class="st1" d="M517.3,370.9c0-15.1,0-30.1,0-45.2c-3.9,0.6-12.1,2.3-20.3,8.6c-8.3,6.4-12.1,14-13.7,17.7
			c0,33.2,0,66.5,0,99.7c-0.1,2.6-0.9,15.4-11.4,25.4c-9.8,9.3-21.3,10.1-24.2,10.2c-94.8,0-189.7,0-284.5,0
			c-2.7-0.1-18.2-1.1-29.3-14.1c-8.6-10-9.5-21.2-9.6-24.8c0-32,0-64.1,0-96.1c-0.6-2.3-3.5-11.8-13.2-17.8
			c-7.8-4.9-15.6-4.8-18.4-4.6c0,42.4,0,84.8,0,127.2c1.1,6.4,5.7,28.3,25.4,45c14.2,12,29.2,15.5,36.3,16.7c98.7,0,197.4,0,296,0
			c5.9-0.5,26.7-3.1,44.5-20.4c18.2-17.8,21.1-39.2,21.7-45C516.9,425.9,517.1,398.4,517.3,370.9z"/>
		<path class="st1" d="M92.7,232.1c0,15.1,0,30.1,0,45.2c3.9-0.6,12.1-2.3,20.3-8.6c8.3-6.4,12.1-14,13.7-17.7c0-33.2,0-66.5,0-99.7
			c0.1-2.6,0.9-15.4,11.4-25.4c9.8-9.3,21.3-10.1,24.2-10.2c94.8,0,189.7,0,284.5,0c2.7,0.1,18.2,1.1,29.3,14.1
			c8.6,10,9.5,21.2,9.6,24.8c0,32,0,64.1,0,96.1c0.6,2.3,3.5,11.8,13.2,17.8c7.8,4.9,15.6,4.8,18.4,4.6c0-42.4,0-84.8,0-127.2
			c-1.1-6.4-5.7-28.3-25.4-45c-14.2-12-29.2-15.5-36.3-16.7c-98.7,0-197.4,0-296,0c-5.9,0.5-26.7,3.1-44.5,20.4
			c-18.2,17.8-21.1,39.2-21.7,45C93.1,177.1,92.9,204.6,92.7,232.1z"/>
	</g>
	<g>
		<path class="st1" d="M350,347.2c5.8-0.5,10.8-3.5,15.4-6.9c9.5-6.9,14.3-16.3,15-27.8c0.6-11.6-4.7-21.3-11.6-29.9
			c-6-7.5-13-14.2-19.8-21.1c-7.6-7.7-15.1-15.4-22.4-23.4c-6.1-6.6-12.3-13.1-18.4-19.6c-0.5-0.6-0.9-1.9-2.2-1
			c-0.5-0.6-0.8-0.1-1.1,0.2c-5.9,5.9-11.8,11.7-17.6,17.6c-0.3,0.3-0.8,0.6-0.2,1.1c0,0,0,0,0,0c0,0,0,0,0,0
			c-2.6,2.7-5.2,5.4-7.8,8.1c0,0,0,0,0,0c0,0,0,0,0,0c-0.9-0.1-1.4,0.3-2,0.9c-4.3,4.3-8.6,8.6-12.8,12.8c-0.6,0.6-1,1.1-0.8,2
			c-4.5,4.7-9.1,9.5-13.6,14.2c-6.8,7.1-12.7,14.8-16.7,23.9c-1.4,3.2-1.8,6.7-3.1,9.9c-0.2,0-0.3,0-0.5,0c-0.1,0-0.1,0.1-0.1,0.2
			c0,3.7,0,7.4,0,11.1c0.1,0,0.2,0,0.3,0c0.1-0.5,0.2-1.1,0.2-1.6c0.8,7.6,4.2,14,9.1,19.8c9.9,12,27.4,16.1,41.2,8.8
			c6.8-3.6,12.7-8.3,18.1-13.7c0.5-0.5,1-1.5,1.8-1c0.9,0.5,0,1.4-0.2,2c-0.7,2.8-1.5,5.7-2.3,8.5c-2.3,8.1-3.8,16.4-9.4,23.2
			c-2.3,2.8-5.2,4.7-7.8,7.2c-1.2,1.2-1.5,2,0.1,3.1c4,2.9,7.8,6,12.3,8.2c6.3,3.1,12.8,3.4,19.4,1.6c6.4-1.7,11.8-5.5,16.8-9.9
			c1.4-1.2,1.6-1.9,0.2-3.3c-4.6-4.7-9.1-9.6-11-16.1c-1.6-5.4-3.1-10.9-4.1-16.5c-0.6-3.4-1.7-6.7-2-10.7c5.6,4.9,11,8.9,16.7,12.8
			C335.5,346.6,342.5,347.8,350,347.2z"/>
		<path class="st1" d="M380.4,381.7c1-18.7,0-25.3,0-35.3c0-0.7,0.2-1.5-0.5-2.2c-0.4-0.8-0.7-0.2-1,0.1c-2.2,2.2-4.6,4.4-6.7,6.7
			c-7.1,7.7-14.4,15.2-21.9,22.5c4.4,22.1-5,43.9-22.7,54.1c-12.9,7.4-29.5,8.2-43.1,1.4c-18.5-9.3-29.1-31.2-25.2-54
			c-9.7-10.2-19.3-20.5-29-30.7c-0.2,1.4-0.2,2.1-0.3,2.9c-0.7,0.8-0.5,1.8-0.5,2.7c0,14.9,0.7,21.4,0,39.8
			c-0.2,4.1-0.3,4.4-0.3,6.9c0.1,1.8,0.4,10,5.1,21.1c4.8,11.4,11.4,20.9,19.8,28.4c0,0,12.3,11,30.3,16.6
			c5.8,1.8,11.1,2.4,11.1,2.4c3.5,0.4,6.5,0.5,8.6,0.4c6.1,0.2,15.6-0.2,26.3-4.1c1.4-0.5,5.7-2.1,11-5.2
			c5.9-3.4,20.2-11.9,29.9-29.7c9.1-16.6,9.2-32.4,8.9-39.4C380.2,384.7,380.3,382.8,380.4,381.7z"/>
		<path class="st1" d="M229.6,221.3c-1,18.7,0,25.3,0,35.3c0,0.7-0.2,1.5,0.5,2.2c0.4,0.8,0.7,0.2,1-0.1c2.2-2.2,4.6-4.4,6.7-6.7
			c7.1-7.7,14.4-15.2,21.9-22.5c-4.4-22.1,5-43.9,22.7-54.1c12.9-7.4,29.5-8.2,43.1-1.4c18.5,9.3,29.1,31.2,25.2,54
			c9.7,10.2,19.3,20.5,29,30.7c0.2-1.4,0.2-2.1,0.3-2.9c0.7-0.8,0.5-1.8,0.5-2.7c0-14.9-0.7-21.4,0-39.8c0.2-4.1,0.3-4.4,0.3-6.9
			c-0.1-1.8-0.4-10-5.1-21.1c-4.8-11.4-11.4-20.9-19.8-28.4c0,0-12.3-11-30.3-16.6c-5.8-1.8-11.1-2.4-11.1-2.4
			c-3.5-0.4-6.5-0.5-8.6-0.4c-6.1-0.2-15.6,0.2-26.3,4.1c-1.4,0.5-5.7,2.1-11,5.2c-5.9,3.4-20.2,11.9-29.9,29.7
			c-9.1,16.6-9.2,32.4-8.9,39.4C229.8,218.3,229.7,220.2,229.6,221.3z"/>
	</g>
	<g>
		
			<rect x="417.8" y="279.4" transform="matrix(0.7071 0.7071 -0.7071 0.7071 342.0443 -222.7679)" class="st1" width="44.2" height="44.2"/>
		
			<rect x="148" y="279.4" transform="matrix(0.7071 0.7071 -0.7071 0.7071 263.006 -31.9526)" class="st1" width="44.2" height="44.2"/>
	</g>
</g>
</svg>
