<svg xmlns="http://www.w3.org/2000/svg" xmlns:xlink="http://www.w3.org/1999/xlink" viewBox="0 0 610 603">
  <defs>
    <style>
      .a {
        fill: url(#a);
      }

      .b {
        fill: url(#b);
      }

      .c {
        fill: url(#c);
      }

      .d {
        fill: url(#d);
      }

      .e {
        fill: url(#e);
      }
    </style>
    <linearGradient id="a" x1="230.29" y1="396.47" x2="230.29" y2="191.01" gradientUnits="userSpaceOnUse">
      <stop offset="0" stop-color="#39b54a"/>
      <stop offset="0.34" stop-color="#36b74d"/>
      <stop offset="0.57" stop-color="#2dbe56"/>
      <stop offset="0.76" stop-color="#1ec965"/>
      <stop offset="0.94" stop-color="#09d97a"/>
      <stop offset="1" stop-color="#00df82"/>
    </linearGradient>
    <linearGradient id="b" x1="346.37" y1="394.42" x2="346.37" y2="355.59" xlink:href="#a"/>
    <linearGradient id="c" x1="374.45" y1="230.86" x2="374.45" y2="193.15" xlink:href="#a"/>
    <linearGradient id="d" x1="307.48" y1="448.64" x2="307.48" y2="140.66" xlink:href="#a"/>
    <linearGradient id="e" x1="305" y1="526.34" x2="305" y2="76.66" xlink:href="#a"/>
  </defs>
  <g>
    <path class="a" d="M242.14,191.92l-3.76,1.79A31.51,31.51,0,0,0,226,211.36a46.34,46.34,0,0,0-1.21,5.28q-6.66,38.37-13.49,76.87-3.41,19.26-6.86,38.57t-6.93,38.66a42.74,42.74,0,0,0-.75,7,24.11,24.11,0,0,0,1.36,9,17.91,17.91,0,0,0,4.86,7.08c.42.25.85.51,1.27.78l1.27.77c6.79,2.27,13.57,1.26,20.46-4.87,6.09-5.43,8.77-12.33,10.11-20,9-51.17,17.68-102.19,27.07-153C266.49,199.39,256.87,187.56,242.14,191.92Z"/>
    <path class="b" d="M301,394.34c5.05-.6,10-.4,15-.54L381,391.91l3.67-1.71c8.4-6.94,11.92-14.22,11-22.6s-5.84-12.17-15-12c-24.31.42-48.9,1-73.69,1.2-3.37,0-4.3,1.31-4.77,5-.6,4.65-1.71,9.33-2.6,14-.09,1.13-.19,2.26-.33,3.39s-.32,2.26-.52,3.39q-.59,3.39-1.51,6.79C296.28,393.39,297.32,394.78,301,394.34Z"/>
    <path class="c" d="M349.78,230.43c18.23.15,36.3.37,54.26.43,10.2,0,18.69-9.29,19.22-20.84a16.49,16.49,0,0,0-5.41-13.51L415,195a1.21,1.21,0,0,1-.2-.09c-2.17-.12-4.34-.29-6.53-.33-23.87-.42-48-.72-72.35-1.37-3.49-.1-5,1-5.38,5a72,72,0,0,1-2.32,13.41c-.74,4.63-1.26,9.28-2.26,13.88-.81,3.64-.34,5,3,4.89C336,230.06,342.87,230.37,349.78,230.43Z"/>
    <path class="d" d="M285.75,420.22c-.55,0-1.09,0-1.65,0-1,.25-1.93.48-2.88.68-5.49,9.42-12.73,17.12-20.57,25.48l105.88-3.83c1.58,0,3.16-.07,4.75-.23,38-4.24,70-48.76,65.68-90.9-2.86-28.1-20.89-46-46.6-45.9-38.3.21-77.24.61-116.79.7-3.68,0-4.69,1.1-5.41,5.36-3.35,20.32-7,40.68-10.62,61.06-5,28.47-28.45,49.95-50.67,49.95a33.23,33.23,0,0,1-8.05-1c-.56-.11-1.18-.09-1.74-.2a2,2,0,0,1-1.43-.9,26.11,26.11,0,0,1-8.7-4.47c-.37-.28-.72-.57-1.07-.88a30.83,30.83,0,0,1-7-9.19,3.68,3.68,0,0,1-1.36-2.76,35.39,35.39,0,0,1-1.71-3.95c-.17-.45-.32-.9-.47-1.37A40.78,40.78,0,0,1,174,379.71a.89.89,0,0,1,0-.15,1,1,0,0,1,0-.16,9,9,0,0,1-.11-1.72,22.25,22.25,0,0,1,.32-2.65c.07-.39.15-.78.23-1.17s.2-1,.28-1.48q7-39.35,14-78.55t13.93-78.18c.09-.57.19-1.14.28-1.73l.21-1.37a19.71,19.71,0,0,1,1.43-5.11v-.07a1.13,1.13,0,0,1,.11-.22l.14-.22a52,52,0,0,1,1.78-5.8A51.48,51.48,0,0,1,213.69,188c.6-.82,1.23-1.61,1.89-2.39a4.13,4.13,0,0,1,1.83-2.2q10.14-12.52,23.76-16.19a2.92,2.92,0,0,1,2.88-.7,26.64,26.64,0,0,1,3.37-.89c25.6-3.14,42.75,18.76,37.88,48.44-3.39,20.69-7.12,41.41-10.91,62.16-.69,3.77-.12,4.82,3.19,4.81,39.54-.24,78.4-.26,116.65-.34a55.35,55.35,0,0,0,13.43-1.48c29.09-7.31,53.44-38.36,56.31-71.4,3.08-35.52-15.59-61.89-44.86-62.74q-49.91-1.45-101.29-2.73c-1.11,0-2.27-.72-3.67.64,4.7,7.38,9.06,14.95,11.28,24.14a16.4,16.4,0,0,1,2.3.45c4.06.6,8.3.25,12.44.35,25.33.62,50.42,1.11,75.24,1.66a5.85,5.85,0,0,1,.6,0h.05A4.21,4.21,0,0,1,418,170l2.76.35a2.26,2.26,0,0,1,2.39.71c8.49,2.38,14.43,8.16,17.81,17.43.15.32.29.66.43,1a16.19,16.19,0,0,1,1,2.26c8.41,29.21-14.24,63.95-42.33,64.11-32,.2-64.33-.19-97.19-.17-3,0-3.32-1.13-2.74-4.39,2.43-13.2,4.91-26.42,6.8-39.59,5-34.76-12.35-64.54-40.71-70.12-29.11-5.72-62.06,14.6-77.79,48.38a99.56,99.56,0,0,0-7.68,24.76q-6.6,36.65-13.32,73.41a4.19,4.19,0,0,1,0,.5,4,4,0,0,1-.05,1,4.79,4.79,0,0,1-.52,1.5c-.24,1.8-.41,3.61-.73,5.44-4.68,26.22-9.46,52.5-14.06,78.82-7,40.24,13.6,71.5,47.87,73.17,31.57,1.54,66-28.35,76.72-66.45,4.24-15.07,5.8-30.18,8.49-45.25.71-4,1.49-5.48,5.29-5.48,20.41,0,40.75-.4,60.86-.63,12.83-.15,25.69-.75,38.25-.22,13.88.58,22.84,8.89,26.19,24.22,3.13,14.32-.08,28.58-9.71,42.28a5.8,5.8,0,0,1-2,2.76c-6.5,8.35-14,13.9-22.76,16.11a2.87,2.87,0,0,1-2.67.75q-1.44.21-2.91.39a4.06,4.06,0,0,1-1.11.47c-.18,0-.37.08-.54.1a23.78,23.78,0,0,1-2.67,0l-36.64,1.12-37.23,1.14c-3.34.12-6.7.21-10.06.32C286.85,420.23,286.3,420.22,285.75,420.22Z"/>
    <path class="e" d="M460.62,294.26q35.07-15,56.34-41.73c33.61-40.79,31.56-118.06-17.13-147.47-17.36-13.85-49-21.15-86.69-24.75a2.76,2.76,0,0,1,.08-.27C327.31,71.6,210.34,82.1,159.55,78.1L70.32,524.24c98.36-8.83,280.51,24.25,381.84-29.64-5.6-18.52-18.77-34.64-35.38-50a95.3,95.3,0,0,1-34.47,20.06,66.18,66.18,0,0,1-17.19,3.12q-81.63,3.36-167.1,6.9c-47.56,1.95-79-42.45-68.93-98.48q14.74-82.51,29.47-164.49c8.88-49.46,50.1-91.95,92.5-96.2a91.57,91.57,0,0,1,12.13-.4l127.63,4.12c-.08.1-.15.2-.23.29l33.09,1c31.44.91,55.67,26.26,59.95,62.29,4.42,37.1-11.57,77.77-40.38,102.21-1.49,1.27-3.1,2.3-4.65,3.43v0c-1.5,2.19-4.87,2.46-5.15,4.86-.18,1.57,2.34,2.88,3.66,4.34h0c14.9,14.42,21.81,34.55,21,59.64C457,390.92,441,423.6,417.37,444.76c16.67,15.32,29.9,31.39,35.57,49.89,15.83-8.49,29.69-19.1,40.91-32.33C537.08,413.72,529.47,317.63,460.62,294.26Z"/>
  </g>
</svg>
