<?xml version="1.0" encoding="utf-8"?>
<!-- Generator: Adobe Illustrator 24.1.2, SVG Export Plug-In . SVG Version: 6.00 Build 0)  -->
<svg version="1.1" id="Layer_1" xmlns="http://www.w3.org/2000/svg" xmlns:xlink="http://www.w3.org/1999/xlink" x="0px" y="0px"
	 viewBox="0 0 120 44" style="enable-background:new 0 0 120 44;" xml:space="preserve">
<style type="text/css">
	.st0{fill:#00DF82;}
</style>
<g>
	<path class="st0" d="M55,16.3c0.5,0.3,1.2,0.4,2,0.4c0.7,0,1.3-0.1,1.9-0.3c0.6-0.2,1.1-0.5,1.5-0.9c0.4-0.4,0.7-0.8,1-1.3
		c0.2-0.5,0.3-1.1,0.3-1.7c0-0.6-0.1-1.1-0.4-1.6c-0.3-0.5-0.7-0.8-1.3-1.1c-0.5-0.3-1.2-0.4-2-0.4c-0.7,0-1.3,0.1-1.9,0.3
		c-0.6,0.2-1.1,0.5-1.5,0.9c-0.4,0.4-0.7,0.8-1,1.3c-0.2,0.5-0.3,1.1-0.3,1.7c0,0.6,0.1,1.1,0.4,1.6C54,15.7,54.4,16.1,55,16.3z
		 M55.5,12.7c0.1-0.3,0.3-0.5,0.5-0.8c0.2-0.2,0.4-0.4,0.7-0.5c0.3-0.1,0.6-0.2,1-0.2c0.4,0,0.7,0.1,0.9,0.2
		c0.3,0.1,0.5,0.3,0.6,0.5c0.1,0.2,0.2,0.5,0.2,0.8c0,0.3-0.1,0.6-0.2,0.9c-0.1,0.3-0.3,0.5-0.5,0.8c-0.2,0.2-0.4,0.4-0.7,0.5
		c-0.3,0.1-0.6,0.2-1,0.2c-0.4,0-0.7-0.1-0.9-0.2c-0.3-0.1-0.5-0.3-0.6-0.5c-0.1-0.2-0.2-0.5-0.2-0.8C55.4,13.3,55.4,13,55.5,12.7z"
		/>
	<polygon class="st0" points="64.7,12.8 67.2,16.6 68.9,16.6 70.4,9.7 68.3,9.7 67.5,13.5 65.1,9.7 63.3,9.7 61.9,16.6 63.9,16.6 	
		"/>
	<path class="st0" d="M72.5,16.4c0.6,0.3,1.2,0.4,2,0.4c0.7,0,1.3-0.1,1.8-0.3c0.5-0.2,1-0.5,1.4-1l-1.2-1.1
		c-0.3,0.3-0.5,0.5-0.9,0.6c-0.3,0.1-0.6,0.2-1,0.2c-0.4,0-0.7-0.1-1-0.2c-0.3-0.1-0.5-0.3-0.6-0.5c-0.1-0.2-0.2-0.5-0.2-0.8
		c0-0.3,0.1-0.7,0.2-1c0.1-0.3,0.3-0.5,0.5-0.8c0.2-0.2,0.5-0.4,0.8-0.5c0.3-0.1,0.6-0.2,1-0.2c0.4,0,0.7,0.1,1,0.2
		c0.3,0.1,0.5,0.3,0.7,0.6l1.5-1.1c-0.3-0.4-0.7-0.7-1.2-1c-0.5-0.2-1.1-0.3-1.8-0.3c-0.7,0-1.3,0.1-1.9,0.3
		c-0.6,0.2-1.1,0.5-1.5,0.9c-0.4,0.4-0.7,0.8-1,1.3c-0.2,0.5-0.3,1.1-0.3,1.7c0,0.6,0.2,1.1,0.5,1.6C71.5,15.7,71.9,16.1,72.5,16.4z
		"/>
	<polygon class="st0" points="80.3,16.6 80.9,13.9 83.7,13.9 83.1,16.6 85.2,16.6 86.7,9.7 84.6,9.7 84.1,12.3 81.2,12.3 81.8,9.7 
		79.7,9.7 78.2,16.6 	"/>
	<path class="st0" d="M88,16.6l0.9-1.3H92l0.3,1.3h2.1l-1.8-6.9h-2.1l-4.7,6.9H88z M91.2,11.6l0.5,2.2h-1.9L91.2,11.6z"/>
	<polygon class="st0" points="98.6,9.7 96.5,9.7 95,16.6 97.1,16.6 	"/>
	<polygon class="st0" points="101.5,12.8 103.9,16.6 105.6,16.6 107.1,9.7 105.1,9.7 104.3,13.5 101.8,9.7 100.1,9.7 98.6,16.6 
		100.7,16.6 	"/>
	<path class="st0" d="M23.3,12.9c-0.1,0-0.2,0.1-0.3,0.1c-0.6,0.4-0.9,0.9-1.1,1.5c0,0.1-0.1,0.3-0.1,0.4c-0.4,2.1-0.8,4.3-1.2,6.4
		c-0.2,1.1-0.4,2.1-0.6,3.2c-0.2,1.1-0.4,2.1-0.6,3.2c0,0.2-0.1,0.4-0.1,0.6c0,0.3,0,0.5,0.1,0.7c0.1,0.2,0.2,0.4,0.4,0.6
		c0,0,0.1,0,0.1,0.1c0,0,0.1,0,0.1,0.1c0.6,0.2,1.2,0.1,1.8-0.4c0.5-0.5,0.8-1,0.9-1.7c0.8-4.3,1.6-8.5,2.4-12.7
		C25.5,13.5,24.6,12.5,23.3,12.9z"/>
	<path class="st0" d="M28.6,29.7c0.4-0.1,0.9,0,1.3,0c2-0.1,3.9-0.1,5.8-0.2c0.1,0,0.2-0.1,0.3-0.1c0.7-0.6,1.1-1.2,1-1.9
		c-0.1-0.7-0.5-1-1.3-1c-2.2,0-4.4,0.1-6.6,0.1c-0.3,0-0.4,0.1-0.4,0.4c-0.1,0.4-0.2,0.8-0.2,1.2c0,0.1,0,0.2,0,0.3
		c0,0.1,0,0.2,0,0.3c0,0.2-0.1,0.4-0.1,0.6C28.1,29.6,28.2,29.8,28.6,29.7z"/>
	<path class="st0" d="M32.9,16.1c1.6,0,3.2,0,4.8,0c0.9,0,1.7-0.8,1.7-1.7c0-0.5-0.2-0.8-0.5-1.1c-0.1,0-0.2-0.1-0.3-0.1
		c0,0,0,0,0,0c-0.2,0-0.4,0-0.6,0c-2.1,0-4.3-0.1-6.4-0.1c-0.3,0-0.4,0.1-0.5,0.4c0,0.4-0.1,0.7-0.2,1.1c-0.1,0.4-0.1,0.8-0.2,1.2
		c-0.1,0.3,0,0.4,0.3,0.4C31.7,16.1,32.3,16.1,32.9,16.1z"/>
	<path class="st0" d="M36.5,22.3c-3.4,0-6.9,0.1-10.4,0.1c-0.3,0-0.4,0.1-0.5,0.4c-0.3,1.7-0.6,3.4-0.9,5.1
		c-0.4,2.4-2.5,4.2-4.5,4.2c-0.2,0-0.5,0-0.7-0.1c0,0-0.1,0-0.2,0c0,0-0.1,0-0.1-0.1c-0.3-0.1-0.5-0.2-0.8-0.4c0,0-0.1,0-0.1-0.1
		c-0.2-0.2-0.5-0.5-0.6-0.8c-0.1-0.1-0.1-0.1-0.1-0.2c-0.1-0.1-0.1-0.2-0.2-0.3c0,0,0-0.1,0-0.1c-0.2-0.5-0.2-1-0.1-1.5c0,0,0,0,0,0
		c0,0,0,0,0,0c0,0,0-0.1,0-0.1c0-0.1,0-0.1,0-0.2c0,0,0-0.1,0-0.1c0,0,0-0.1,0-0.1c0.4-2.2,0.8-4.4,1.2-6.5c0.4-2.2,0.8-4.3,1.2-6.5
		c0,0,0-0.1,0-0.1c0,0,0-0.1,0-0.1c0-0.1,0.1-0.3,0.1-0.4l0,0c0,0,0,0,0,0c0,0,0,0,0,0c0-0.2,0.1-0.3,0.2-0.5
		c0.2-0.4,0.4-0.8,0.6-1.1c0.1-0.1,0.1-0.1,0.2-0.2c0-0.1,0.1-0.1,0.2-0.2c0.6-0.7,1.3-1.1,2.1-1.3c0.1-0.1,0.2-0.1,0.3-0.1
		c0.1,0,0.2-0.1,0.3-0.1c2.3-0.3,3.8,1.6,3.4,4c-0.3,1.7-0.6,3.4-1,5.2c-0.1,0.3,0,0.4,0.3,0.4c3.5,0,7,0,10.4,0
		c0.4,0,0.8,0,1.2-0.1c2.6-0.6,4.8-3.2,5-5.9c0.3-3-1.4-5.1-4-5.2c-3-0.1-6-0.2-9-0.2c-0.1,0-0.2-0.1-0.3,0.1c0.4,0.6,0.8,1.2,1,2
		c0.1,0,0.1,0,0.2,0c0.4,0,0.7,0,1.1,0c2.3,0.1,4.5,0.1,6.7,0.1c0,0,0,0,0.1,0c0,0,0,0,0,0c0.1,0,0.1,0,0.2,0c0.1,0,0.2,0,0.2,0
		c0.1,0,0.2,0,0.2,0.1c0.8,0.2,1.3,0.7,1.6,1.4c0,0,0,0.1,0,0.1c0,0.1,0.1,0.1,0.1,0.2c0.7,2.4-1.3,5.3-3.8,5.3c-2.9,0-5.7,0-8.7,0
		c-0.3,0-0.3-0.1-0.2-0.4c0.2-1.1,0.4-2.2,0.6-3.3c0.4-2.9-1.1-5.4-3.6-5.8c-2.6-0.5-5.5,1.2-6.9,4c-0.3,0.7-0.5,1.4-0.7,2.1
		c-0.4,2-0.8,4.1-1.2,6.1c0,0,0,0,0,0c0,0,0,0.1,0,0.1c0,0,0,0.1,0,0.1c0,0.2,0,0.3-0.1,0.5c-0.4,2.2-0.8,4.4-1.3,6.6
		c-0.6,3.3,1.2,5.9,4.3,6.1c2.8,0.1,5.9-2.4,6.8-5.5c0.4-1.3,0.5-2.5,0.8-3.8c0.1-0.3,0.1-0.5,0.5-0.5c1.8,0,3.6,0,5.4-0.1
		c1.1,0,2.3-0.1,3.4,0c1.2,0,2,0.7,2.3,2c0.3,1.2,0,2.4-0.9,3.5c0,0.1-0.1,0.2-0.2,0.2c-0.6,0.7-1.2,1.2-2,1.3
		c-0.1,0.1-0.2,0.1-0.2,0.1c-0.1,0-0.2,0-0.3,0c0,0-0.1,0-0.1,0c0,0,0,0,0,0c-0.1,0-0.2,0-0.2,0c-1.1,0-2.2,0.1-3.3,0.1
		c-1.1,0-2.2,0.1-3.3,0.1c-0.3,0-0.6,0-0.9,0c0,0-0.1,0-0.1,0c0,0-0.1,0-0.1,0c-0.1,0-0.2,0-0.3,0.1c-0.5,0.8-1.1,1.4-1.8,2.1
		l9.4-0.3c0.1,0,0.3,0,0.4,0c3.4-0.4,6.2-4.1,5.9-7.6C40.4,23.8,38.8,22.3,36.5,22.3z"/>
	<path class="st0" d="M42.8,21.4c2.1-0.8,3.8-2,5-3.5c3-3.4,2.9-9.8-1.5-12.3c-1.6-1.2-4.4-1.8-7.8-2.1C30.9,2.9,20.5,3.8,16,3.4
		L8,40.5c8.8-0.7,25,2,34-2.5c1.4-0.7,2.7-1.6,3.7-2.7C49.6,31.3,48.9,23.4,42.8,21.4z M42.5,26.6c-0.1,2.8-1.5,5.5-3.7,7.3
		c-0.9,0.8-2,1.3-3.1,1.7c-0.5,0.2-1,0.2-1.5,0.3c-4.8,0.2-9.8,0.4-14.9,0.6c-4.2,0.2-7-3.5-6.1-8.2c0.9-4.6,1.8-9.1,2.6-13.7
		c0.8-4.1,4.5-7.6,8.2-8c0.4,0,0.7,0,1.1,0c3.9,0.1,7.7,0.2,11.4,0.3c1,0,2,0.1,2.9,0.1c2.8,0.1,5,2.2,5.3,5.2
		c0.4,3.1-1.1,6.5-3.6,8.5c-0.1,0.1-0.3,0.2-0.4,0.3v0c-0.1,0.2-0.4,0.2-0.5,0.4c0,0.1,0.2,0.2,0.3,0.4c0,0,0,0,0,0
		C42,22.9,42.6,24.5,42.5,26.6z"/>
	<polygon class="st0" points="48.1,39.4 65.4,39.4 66.4,35 55.1,35 55.8,31.3 65.5,31.3 66.4,27 56.8,27 57.5,23.6 68.4,23.6 
		69.4,19.1 52.4,19.1 	"/>
	<polygon class="st0" points="90.6,19.1 71.2,19.1 70.2,23.7 76.8,23.7 73.5,39.4 79.6,39.4 83,23.7 89.6,23.7 	"/>
	<path class="st0" d="M105,28.9c-2.3-1.5-5.6-1.5-7.9-2.8c-1.3-0.9-0.1-2.4,1.2-2.7c2.6-0.7,5.8-0.1,8.1,1.3l2.2-4.2
		c-4.9-2.5-13.3-2.7-17,1.7c-1.3,1.6-1.8,4.3-0.7,6.1c1.2,1.9,3.7,2.6,5.8,3.2c1.6,0.4,5.4,1,3.7,3.1c-2.9,1.9-7.7,0.4-10.5-1.2
		l-2.4,4.3c5.1,2.9,14.3,3.4,18.2-1.2C107.5,34.2,107.7,30.4,105,28.9z"/>
</g>
</svg>
