<?xml version="1.0" encoding="utf-8"?>
<!-- Generator: Adobe Illustrator 24.1.2, SVG Export Plug-In . SVG Version: 6.00 Build 0)  -->
<svg version="1.1" id="Layer_1" xmlns="http://www.w3.org/2000/svg" xmlns:xlink="http://www.w3.org/1999/xlink" x="0px" y="0px"
	 viewBox="0 0 120 44" style="enable-background:new 0 0 120 44;" xml:space="preserve">
<style type="text/css">
	.st0{fill:#63A93C;}
	.st1{fill:#FEFEFE;}
</style>
<g>
	<path class="st0" d="M43.7,40.4H15.4c-2.3,0-4.2-1.9-4.2-4.2V7.8c0-2.3,1.9-4.2,4.2-4.2h28.3C46,3.6,48,5.5,48,7.8v28.3
		C48,38.5,46,40.4,43.7,40.4z"/>
	<path class="st1" d="M43.6,26.6c0-1,0-2,0-3c-0.3,0-0.8,0.2-1.3,0.6c-0.6,0.4-0.8,0.9-0.9,1.2c0,2.2,0,4.4,0,6.6
		c0,0.2-0.1,1-0.8,1.7c-0.6,0.6-1.4,0.7-1.6,0.7c-6.3,0-12.6,0-18.9,0c-0.2,0-1.2-0.1-1.9-0.9c-0.6-0.7-0.6-1.4-0.6-1.6
		c0-2.1,0-4.2,0-6.4c0-0.2-0.2-0.8-0.9-1.2c-0.5-0.3-1-0.3-1.2-0.3c0,2.8,0,5.6,0,8.4c0.1,0.4,0.4,1.9,1.7,3c0.9,0.8,1.9,1,2.4,1.1
		c6.5,0,13.1,0,19.6,0c0.4,0,1.8-0.2,2.9-1.4c1.2-1.2,1.4-2.6,1.4-3C43.6,30.2,43.6,28.4,43.6,26.6z"/>
	<path class="st1" d="M15.5,17.4c0,1,0,2,0,3c0.3,0,0.8-0.2,1.3-0.6c0.6-0.4,0.8-0.9,0.9-1.2c0-2.2,0-4.4,0-6.6c0-0.2,0.1-1,0.8-1.7
		c0.6-0.6,1.4-0.7,1.6-0.7c6.3,0,12.6,0,18.9,0c0.2,0,1.2,0.1,1.9,0.9c0.6,0.7,0.6,1.4,0.6,1.6c0,2.1,0,4.2,0,6.4
		c0,0.2,0.2,0.8,0.9,1.2c0.5,0.3,1,0.3,1.2,0.3c0-2.8,0-5.6,0-8.4c-0.1-0.4-0.4-1.9-1.7-3c-0.9-0.8-1.9-1-2.4-1.1
		c-6.5,0-13.1,0-19.6,0c-0.4,0-1.8,0.2-2.9,1.4c-1.2,1.2-1.4,2.6-1.4,3C15.5,13.8,15.5,15.6,15.5,17.4z"/>
	<path class="st1" d="M32.5,25c0.4,0,0.7-0.2,1-0.5c0.6-0.5,1-1.1,1-1.8c0-0.8-0.3-1.4-0.8-2c-0.4-0.5-0.9-0.9-1.3-1.4
		c-0.5-0.5-1-1-1.5-1.5c-0.4-0.4-0.8-0.9-1.2-1.3c0,0-0.1-0.1-0.1-0.1c0,0-0.1,0-0.1,0c-0.4,0.4-0.8,0.8-1.2,1.2c0,0-0.1,0,0,0.1
		l0,0l0,0c-0.2,0.2-0.3,0.4-0.5,0.5h0h0c-0.1,0-0.1,0-0.1,0.1c-0.3,0.3-0.6,0.6-0.9,0.9c0,0-0.1,0.1-0.1,0.1
		c-0.3,0.3-0.6,0.6-0.9,0.9c-0.5,0.5-0.8,1-1.1,1.6c-0.1,0.2-0.1,0.4-0.2,0.7c0,0,0,0,0,0l0,0c0,0.2,0,0.5,0,0.7l0,0
		c0,0,0-0.1,0-0.1c0.1,0.5,0.3,0.9,0.6,1.3c0.7,0.8,1.8,1.1,2.7,0.6c0.5-0.2,0.8-0.5,1.2-0.9c0,0,0.1-0.1,0.1-0.1c0.1,0,0,0.1,0,0.1
		c0,0.2-0.1,0.4-0.2,0.6c-0.2,0.5-0.3,1.1-0.6,1.5c-0.2,0.2-0.3,0.3-0.5,0.5c-0.1,0.1-0.1,0.1,0,0.2c0.3,0.2,0.5,0.4,0.8,0.5
		c0.4,0.2,0.8,0.2,1.3,0.1c0.4-0.1,0.8-0.4,1.1-0.7c0.1-0.1,0.1-0.1,0-0.2c-0.3-0.3-0.6-0.6-0.7-1.1c-0.1-0.4-0.2-0.7-0.3-1.1
		c0-0.2-0.1-0.4-0.1-0.7c0.4,0.3,0.7,0.6,1.1,0.8C31.6,25,32,25.1,32.5,25z"/>
	<path class="st1" d="M34.5,27.3c0.1-1.2,0-1.7,0-2.3c0,0,0-0.1,0-0.1c0-0.1,0,0-0.1,0c-0.1,0.1-0.3,0.3-0.4,0.4
		c-0.5,0.5-1,1-1.5,1.5c0.3,1.5-0.3,2.9-1.5,3.6c-0.9,0.5-2,0.5-2.9,0.1c-1.2-0.6-1.9-2.1-1.7-3.6c-0.6-0.7-1.3-1.4-1.9-2
		c0,0.1,0,0.1,0,0.2c0,0.1,0,0.1,0,0.2c0,1,0,1.4,0,2.6c0,0.3,0,0.3,0,0.5c0,0.1,0,0.7,0.3,1.4c0.3,0.8,0.8,1.4,1.3,1.9
		c0,0,0.8,0.7,2,1.1c0.4,0.1,0.7,0.2,0.7,0.2c0.2,0,0.4,0,0.6,0c0.4,0,1,0,1.7-0.3c0.1,0,0.4-0.1,0.7-0.3c0.4-0.2,1.3-0.8,2-2
		c0.6-1.1,0.6-2.1,0.6-2.6C34.5,27.5,34.5,27.4,34.5,27.3z"/>
	<path class="st1" d="M24.6,16.7c-0.1,1.2,0,1.7,0,2.3c0,0,0,0.1,0,0.1c0,0.1,0,0,0.1,0c0.1-0.1,0.3-0.3,0.4-0.4
		c0.5-0.5,1-1,1.5-1.5c-0.3-1.5,0.3-2.9,1.5-3.6c0.9-0.5,2-0.5,2.9-0.1c1.2,0.6,1.9,2.1,1.7,3.6c0.6,0.7,1.3,1.4,1.9,2
		c0-0.1,0-0.1,0-0.2c0-0.1,0-0.1,0-0.2c0-1,0-1.4,0-2.6c0-0.3,0-0.3,0-0.5c0-0.1,0-0.7-0.3-1.4c-0.3-0.8-0.8-1.4-1.3-1.9
		c0,0-0.8-0.7-2-1.1c-0.4-0.1-0.7-0.2-0.7-0.2c-0.2,0-0.4,0-0.6,0c-0.4,0-1,0-1.7,0.3c-0.1,0-0.4,0.1-0.7,0.3c-0.4,0.2-1.3,0.8-2,2
		c-0.6,1.1-0.6,2.1-0.6,2.6C24.6,16.5,24.6,16.6,24.6,16.7z"/>
	<rect x="37" y="20.5" transform="matrix(0.7071 -0.7071 0.7071 0.7071 -4.2831 33.6598)" class="st1" width="2.9" height="2.9"/>
	<rect x="19.1" y="20.5" transform="matrix(0.7071 -0.7071 0.7071 0.7071 -9.5211 21.0144)" class="st1" width="2.9" height="2.9"/>
	<path class="st1" d="M56.5,16.8c-0.5,0-1-0.1-1.4-0.2c-0.4-0.2-0.8-0.4-1.1-0.7c-0.3-0.3-0.6-0.6-0.7-1C53.1,14.4,53,14,53,13.5
		c0-0.5,0.1-0.9,0.3-1.3s0.4-0.7,0.7-1c0.3-0.3,0.7-0.5,1.1-0.7c0.4-0.2,0.9-0.2,1.4-0.2c0.5,0,1,0.1,1.4,0.2
		c0.4,0.2,0.8,0.4,1.1,0.7c0.3,0.3,0.6,0.6,0.7,1c0.2,0.4,0.3,0.8,0.3,1.3c0,0.5-0.1,0.9-0.3,1.3c-0.2,0.4-0.4,0.7-0.7,1
		c-0.3,0.3-0.7,0.5-1.1,0.7C57.5,16.7,57,16.8,56.5,16.8z M56.5,15.5c0.3,0,0.5,0,0.8-0.1c0.2-0.1,0.4-0.2,0.6-0.4
		c0.2-0.2,0.3-0.4,0.4-0.6c0.1-0.2,0.1-0.5,0.1-0.8c0-0.3,0-0.6-0.1-0.8c-0.1-0.2-0.2-0.5-0.4-0.6c-0.2-0.2-0.4-0.3-0.6-0.4
		c-0.2-0.1-0.5-0.1-0.8-0.1c-0.3,0-0.5,0-0.8,0.1c-0.2,0.1-0.4,0.2-0.6,0.4c-0.2,0.2-0.3,0.4-0.4,0.6c-0.1,0.2-0.1,0.5-0.1,0.8
		c0,0.3,0,0.6,0.1,0.8c0.1,0.3,0.2,0.5,0.4,0.6c0.2,0.2,0.4,0.3,0.6,0.4C55.9,15.5,56.2,15.5,56.5,15.5z"/>
	<polygon class="st1" points="60.6,16.7 60.6,10.3 61.8,10.3 65.6,14.9 65,14.9 65,10.3 66.4,10.3 66.4,16.7 65.2,16.7 61.5,12.1 
		62.1,12.1 62.1,16.7 	"/>
	<path class="st1" d="M70.5,16.8c-0.5,0-0.9-0.1-1.4-0.2c-0.4-0.2-0.8-0.4-1.1-0.7c-0.3-0.3-0.5-0.6-0.7-1c-0.2-0.4-0.3-0.8-0.3-1.3
		c0-0.5,0.1-0.9,0.3-1.3c0.2-0.4,0.4-0.7,0.7-1c0.3-0.3,0.7-0.5,1.1-0.7c0.4-0.2,0.9-0.2,1.4-0.2c0.5,0,1,0.1,1.5,0.3
		s0.8,0.5,1.1,0.8l-0.9,0.9c-0.2-0.2-0.5-0.4-0.7-0.6c-0.3-0.1-0.6-0.2-0.9-0.2c-0.3,0-0.6,0-0.8,0.1c-0.2,0.1-0.5,0.2-0.6,0.4
		c-0.2,0.2-0.3,0.4-0.4,0.6c-0.1,0.2-0.1,0.5-0.1,0.8c0,0.3,0,0.6,0.1,0.8c0.1,0.2,0.2,0.5,0.4,0.6c0.2,0.2,0.4,0.3,0.6,0.4
		c0.2,0.1,0.5,0.1,0.8,0.1c0.3,0,0.6-0.1,0.9-0.2c0.3-0.1,0.5-0.3,0.7-0.6l0.9,0.9c-0.3,0.4-0.7,0.6-1.1,0.8
		C71.6,16.7,71.1,16.8,70.5,16.8z"/>
	<path class="st1" d="M75.1,16.7h-1.5v-6.3h1.5V16.7z M78.1,14.1H75v-1.2h3.1V14.1z M78,10.3h1.5v6.3H78V10.3z"/>
	<path class="st1" d="M79.7,16.7l2.8-6.3H84l2.8,6.3h-1.5l-2.3-5.6h0.6l-2.3,5.6H79.7z M81.1,15.3l0.4-1.1h3.3l0.4,1.1H81.1z"/>
	<rect x="87" y="10.3" class="st1" width="1.5" height="6.3"/>
	<polygon class="st1" points="89.5,16.7 89.5,10.3 90.7,10.3 94.5,14.9 93.9,14.9 93.9,10.3 95.3,10.3 95.3,16.7 94.1,16.7 
		90.4,12.1 91,12.1 91,16.7 	"/>
	<path class="st1" d="M51.9,35l3.4-16.8h8.1c1.8,0,3.2,0.3,4.2,1c1,0.7,1.5,1.6,1.5,2.9c0,1.1-0.3,1.9-0.8,2.7
		c-0.6,0.7-1.3,1.3-2.2,1.6c-0.9,0.4-1.9,0.6-3,0.6l0.6-1c1.4,0,2.5,0.3,3.4,1c0.8,0.6,1.3,1.6,1.3,2.8c0,1.2-0.3,2.2-1,3
		c-0.6,0.8-1.5,1.4-2.7,1.8c-1.1,0.4-2.4,0.6-3.9,0.6H51.9z M56.3,32.1h4.6c1.1,0,1.9-0.2,2.5-0.6c0.6-0.4,0.9-1,0.9-1.8
		c0-0.6-0.2-1.1-0.7-1.3c-0.5-0.3-1.1-0.4-1.8-0.4h-5.1l0.6-2.8h4.4c0.7,0,1.3-0.1,1.7-0.3c0.5-0.2,0.9-0.4,1.1-0.8
		c0.3-0.4,0.4-0.8,0.4-1.3c0-0.6-0.2-1-0.6-1.2c-0.4-0.2-1-0.4-1.8-0.4h-3.9L56.3,32.1z"/>
	<path class="st1" d="M72.4,31.9h9.2L80.9,35h-13l3.4-16.8H84l-0.6,3.1h-8.8L72.4,31.9z M73.5,25h8.1L81,28h-8.1L73.5,25z"/>
	<polygon class="st1" points="85.1,35 87.8,21.4 82.4,21.4 83.1,18.2 97.7,18.2 97.1,21.4 91.7,21.4 89,35 	"/>
	<path class="st1" d="M99.8,35.3c-0.9,0-1.8-0.1-2.7-0.3c-0.9-0.2-1.6-0.4-2.3-0.7c-0.7-0.3-1.3-0.6-1.8-0.9l1.6-3
		c0.5,0.4,1.1,0.7,1.7,1s1.2,0.5,1.9,0.6c0.7,0.1,1.3,0.2,2,0.2c0.7,0,1.3-0.1,1.9-0.2c0.5-0.2,0.9-0.4,1.2-0.7
		c0.3-0.3,0.4-0.6,0.4-1.1c0-0.4-0.2-0.7-0.5-0.9c-0.3-0.2-0.7-0.4-1.2-0.6c-0.5-0.2-1-0.3-1.6-0.5c-0.6-0.2-1.2-0.3-1.8-0.6
		c-0.6-0.2-1.1-0.5-1.6-0.8c-0.5-0.3-0.9-0.7-1.2-1.3c-0.3-0.5-0.5-1.2-0.5-1.9c0-1.2,0.3-2.2,1-3c0.6-0.8,1.5-1.5,2.7-2
		c1.2-0.5,2.5-0.7,4.1-0.7c1.1,0,2.2,0.1,3.2,0.4c1,0.2,1.9,0.6,2.6,1.1l-1.5,3c-0.6-0.4-1.4-0.8-2.1-1c-0.8-0.2-1.6-0.3-2.4-0.3
		c-0.8,0-1.4,0.1-1.9,0.3c-0.5,0.2-0.9,0.4-1.2,0.7c-0.3,0.3-0.4,0.7-0.4,1.1c0,0.4,0.1,0.7,0.4,1c0.3,0.2,0.7,0.5,1.2,0.6
		c0.5,0.2,1,0.3,1.6,0.5c0.6,0.2,1.2,0.3,1.8,0.6c0.6,0.2,1.1,0.5,1.6,0.8c0.5,0.3,0.9,0.7,1.2,1.2c0.3,0.5,0.5,1.1,0.5,1.8
		c0,1.2-0.3,2.2-1,3c-0.6,0.9-1.5,1.5-2.7,2C102.8,35.1,101.4,35.3,99.8,35.3z"/>
</g>
</svg>
